<?xml version="1.0" encoding="UTF-8" standalone="no"?>
<!DOCTYPE svg PUBLIC "-//W3C//DTD SVG 1.1//EN" "http://www.w3.org/Graphics/SVG/1.1/DTD/svg11.dtd">
<svg xmlns="http://www.w3.org/2000/svg" version="1.1" viewBox="0 0 1024 1024" width="1024.0pt" height="1024.0pt">
<path d="M 0.00 0.00 L 1024.00 0.00 L 1024.00 1024.00 L 0.00 1024.00 L 0.00 0.00 Z" fill="#f6edd8" />
<path d="M 454.97 118.22 C 471.16 118.45 487.12 120.32 502.55 125.42 C 505.64 126.32 508.76 127.81 511.96 128.14 C 515.85 127.22 519.46 125.35 523.33 124.32 C 540.91 118.98 559.77 117.52 578.05 118.96 C 608.50 121.25 638.15 131.57 663.61 148.39 C 674.61 155.40 684.72 163.87 694.24 172.76 C 699.76 178.91 705.58 184.89 710.42 191.58 C 721.75 206.26 730.30 222.24 737.93 239.09 C 744.28 253.48 751.73 267.25 761.08 279.93 C 767.46 289.12 774.47 297.80 781.67 306.35 C 794.12 322.11 804.68 339.10 812.27 357.74 C 817.47 370.94 820.32 384.83 820.97 398.99 C 821.05 410.62 818.39 421.95 811.42 431.43 C 807.47 437.29 801.99 440.86 796.37 444.89 C 804.48 457.46 808.31 473.29 809.85 488.02 C 810.65 500.22 809.97 512.36 806.04 524.02 C 803.13 533.46 797.99 542.03 791.22 549.21 C 781.31 559.13 768.19 565.80 754.20 567.29 C 748.43 568.28 742.81 568.11 736.98 567.92 C 730.98 567.63 725.31 565.61 719.39 565.06 C 716.26 572.27 711.87 578.59 707.65 585.18 C 709.13 586.18 710.67 586.99 712.31 587.70 C 740.00 600.19 765.55 616.31 786.85 638.14 C 797.58 648.72 806.66 660.63 814.60 673.41 C 834.07 704.59 844.24 739.81 848.79 776.08 C 849.46 783.05 850.44 789.99 851.02 796.97 C 851.55 805.49 849.69 814.25 843.39 820.40 C 837.04 827.10 828.11 830.06 819.01 830.04 C 791.38 829.96 763.73 830.21 736.10 829.90 C 734.15 821.49 731.96 813.00 730.54 804.54 C 728.54 792.44 727.40 780.32 725.82 768.17 C 725.01 762.35 725.17 756.47 724.43 750.64 C 723.83 745.63 724.17 740.60 723.48 735.60 C 722.58 728.82 723.39 722.05 722.57 715.26 C 721.46 706.14 722.48 697.02 721.53 687.87 C 720.87 674.94 720.95 661.95 721.10 649.00 C 721.09 643.07 721.99 636.96 721.29 631.07 C 721.23 629.36 719.41 628.60 718.18 627.77 C 706.86 621.54 695.12 615.77 683.12 610.97 C 679.54 613.76 676.29 616.94 672.60 619.60 C 664.85 625.35 656.87 631.96 648.17 636.16 C 644.25 638.28 639.40 639.05 636.93 642.94 C 626.82 657.94 615.90 672.31 603.48 685.48 C 596.24 694.03 587.64 700.90 579.68 708.69 C 565.76 721.06 550.91 732.00 535.71 742.71 C 514.60 756.44 492.67 769.32 469.73 779.75 C 434.02 796.85 396.22 809.70 357.66 818.61 C 338.21 823.24 318.62 827.18 298.80 829.83 C 292.85 830.15 286.96 830.02 281.00 830.03 C 255.66 830.05 230.30 830.02 204.96 830.03 C 201.28 830.02 197.52 829.12 194.03 827.99 C 184.59 824.98 176.94 816.62 175.28 806.78 C 173.96 795.47 176.07 785.48 177.39 774.38 C 179.16 759.84 182.53 745.44 186.25 731.29 C 188.33 722.94 191.57 714.77 194.63 706.64 C 198.28 696.99 203.08 688.15 208.17 679.19 C 215.05 667.13 223.26 655.86 232.68 645.67 C 243.31 633.38 255.92 622.60 268.98 612.97 C 283.91 602.18 300.29 593.28 317.10 585.78 C 315.66 582.68 313.64 580.04 311.84 577.16 C 309.29 573.13 307.35 568.80 305.00 564.62 C 291.15 567.70 277.64 569.75 263.58 566.40 C 247.83 562.74 233.65 552.49 225.51 538.47 C 217.78 525.84 214.39 510.73 214.77 496.00 C 214.53 478.45 218.63 459.90 228.04 444.93 C 224.45 442.25 220.52 439.81 217.34 436.66 C 212.66 431.65 208.91 425.83 206.66 419.33 C 202.91 409.61 203.09 398.20 204.00 387.97 C 207.48 359.63 221.05 335.42 237.91 312.92 C 243.44 305.17 249.88 298.19 255.54 290.54 C 267.44 275.21 277.54 258.41 285.85 240.87 C 289.80 231.99 294.12 223.30 298.78 214.77 C 306.20 201.97 314.94 189.86 324.98 178.98 C 328.85 174.50 332.95 170.30 337.55 166.55 C 347.43 157.47 358.34 149.72 369.83 142.82 C 377.24 138.57 384.57 134.61 392.57 131.54 C 408.31 125.32 425.09 120.72 441.97 119.10 C 446.31 118.90 450.63 118.41 454.97 118.22 Z" fill="#4d3f2f" />
<path d="M 591.36 280.94 C 595.27 285.34 598.44 290.17 602.74 294.26 C 610.34 301.59 619.20 307.71 628.70 312.31 C 638.23 316.66 648.61 319.49 658.96 321.03 C 666.46 322.36 674.27 322.32 681.80 321.27 C 683.04 335.89 686.19 350.36 688.08 364.91 C 690.07 376.20 690.94 387.56 691.97 398.95 C 691.95 405.31 692.35 411.65 692.55 418.00 C 692.57 448.44 687.78 479.15 672.83 506.04 C 664.85 496.59 656.27 487.99 645.99 481.01 C 628.47 468.93 608.51 460.55 587.18 458.69 C 583.93 458.48 583.22 455.52 581.77 453.15 C 581.84 449.88 581.09 449.27 577.89 449.13 C 572.67 445.61 567.31 444.44 561.11 443.99 C 560.83 447.95 560.40 451.91 559.83 455.84 C 558.44 464.73 553.06 472.68 545.48 477.48 C 535.00 484.28 523.19 485.69 510.97 485.83 C 507.02 485.58 503.07 485.13 499.14 484.72 C 487.66 482.89 476.27 478.42 469.62 468.36 C 464.65 460.93 463.84 452.64 463.97 443.93 C 458.47 444.17 452.10 445.26 447.56 448.57 C 443.99 451.10 441.97 455.12 438.60 457.70 C 435.21 458.96 431.36 459.06 427.82 459.84 C 406.15 463.98 387.01 474.29 369.74 487.74 C 362.75 493.16 356.93 499.59 350.74 505.84 C 339.46 485.50 333.88 462.31 332.65 439.17 C 331.62 431.73 332.12 424.58 332.00 417.00 C 331.87 412.24 332.59 407.59 332.92 402.86 C 333.42 385.56 336.09 368.91 338.84 351.87 C 340.12 341.67 342.34 331.57 343.22 321.34 C 356.02 323.25 368.36 321.02 380.72 317.70 C 395.27 313.55 408.85 306.27 419.94 295.92 C 424.95 291.89 428.64 286.85 432.77 282.00 C 435.47 289.71 438.25 297.03 443.75 303.24 C 451.03 311.57 461.95 315.94 472.94 315.66 C 480.63 315.15 487.96 312.66 494.34 308.35 C 502.15 302.99 507.42 295.62 512.00 287.47 C 516.01 295.29 521.47 302.20 528.52 307.48 C 535.27 312.50 543.74 315.21 552.07 315.78 C 559.41 315.71 566.88 313.88 573.28 310.24 C 583.45 303.72 589.70 292.79 591.36 280.94 Z" fill="#e5bc90" />
<path d="M 395.96 337.19 C 419.33 337.35 442.67 337.30 466.04 337.21 C 469.47 337.26 474.53 337.80 476.56 341.01 C 474.56 340.06 472.46 339.05 470.31 338.49 C 466.34 337.59 462.10 338.01 458.00 337.98 C 439.34 337.69 420.66 337.64 402.00 337.94 C 398.49 337.96 395.17 337.84 391.70 338.47 C 389.56 338.99 387.47 340.10 385.51 341.07 C 387.28 337.79 392.66 337.30 395.96 337.19 Z" fill="#ffffff" />
<path d="M 402.00 337.94 C 420.66 337.64 439.34 337.69 458.00 337.98 C 462.10 338.01 466.34 337.59 470.31 338.49 C 458.22 338.26 446.10 339.16 434.00 338.92 C 423.98 338.94 414.05 339.15 404.00 338.61 C 399.91 338.44 395.80 338.30 391.70 338.47 C 395.17 337.84 398.49 337.96 402.00 337.94 Z" fill="#e5bc90" />
<path d="M 391.70 338.47 C 395.80 338.30 399.91 338.44 404.00 338.61 C 414.05 339.15 423.98 338.94 434.00 338.92 C 446.10 339.16 458.22 338.26 470.31 338.49 C 472.46 339.05 474.56 340.06 476.56 341.01 C 479.72 344.94 482.41 348.68 482.44 353.98 C 483.22 362.50 475.71 370.79 467.04 370.02 C 444.35 369.88 421.68 369.97 399.00 370.03 C 396.40 370.06 393.72 370.20 391.14 369.86 C 386.34 368.80 382.14 365.16 380.50 360.52 C 379.26 356.96 379.34 352.92 380.32 349.31 C 381.23 346.13 383.59 343.74 385.51 341.07 C 387.47 340.10 389.56 338.99 391.70 338.47 Z" fill="#4d3f2f" />
<path d="M 558.99 338.43 C 575.95 339.13 593.01 338.90 610.00 338.93 C 616.67 338.98 623.40 338.17 630.05 338.56 C 638.29 339.05 643.87 347.17 643.29 355.02 C 643.34 362.86 636.96 369.83 629.05 370.01 C 605.01 370.00 580.99 369.89 556.95 370.01 C 553.34 370.19 549.71 368.30 547.19 365.81 C 540.67 359.79 541.27 347.68 548.21 342.18 C 551.19 339.35 554.94 338.36 558.99 338.43 Z" fill="#4d3f2f" />
<path d="M 300.07 360.45 C 297.44 374.71 295.37 389.19 294.71 403.68 C 294.29 407.12 293.90 410.53 294.00 414.00 C 294.08 419.72 292.97 425.28 293.00 430.98 C 293.00 437.27 293.00 443.56 293.00 449.84 C 285.27 447.98 277.81 444.56 272.20 438.80 C 265.62 432.20 261.97 423.51 260.70 414.35 C 259.28 406.76 260.24 399.37 261.96 391.92 C 264.59 381.53 271.21 372.03 280.39 366.39 C 286.38 362.54 293.08 361.11 300.07 360.45 Z" fill="#e5bc90" />
<path d="M 723.95 360.40 C 731.10 361.05 737.86 362.08 744.10 365.89 C 751.22 370.31 757.02 376.94 760.37 384.63 C 766.96 399.19 766.45 416.48 758.36 430.35 C 752.51 440.40 742.30 447.38 731.01 449.89 C 730.97 441.60 731.05 433.31 730.96 425.03 C 730.66 419.33 729.88 413.71 729.98 407.99 C 728.76 392.01 726.97 376.14 723.95 360.40 Z" fill="#e5bc90" />
<path d="M 434.00 381.94 C 442.77 381.89 449.72 389.37 450.00 397.97 C 450.01 403.64 449.99 409.32 450.00 415.00 C 449.97 417.83 450.25 420.69 449.41 423.40 C 448.11 428.43 444.16 432.51 439.36 434.36 C 432.29 436.62 424.19 434.20 420.24 427.74 C 416.22 421.65 417.59 413.91 417.53 407.00 C 417.80 401.64 416.93 395.49 419.75 390.75 C 422.59 385.51 427.80 381.55 434.00 381.94 Z" fill="#4d3f2f" />
<path d="M 604.11 388.91 C 608.72 395.87 606.53 404.84 607.00 413.00 C 606.88 417.15 607.64 421.04 605.82 424.82 C 603.45 430.67 597.40 435.17 591.01 435.06 C 582.50 435.71 574.40 428.56 574.03 420.01 C 573.96 413.33 574.01 406.64 574.01 399.96 C 574.20 393.41 576.91 387.08 582.90 383.88 C 590.13 380.01 599.63 381.80 604.11 388.91 Z" fill="#4d3f2f" />
<path d="M 577.89 449.13 C 581.09 449.27 581.84 449.88 581.77 453.15 C 580.20 451.98 578.95 450.79 577.89 449.13 Z" fill="#ffffff" />
<path d="M 436.23 517.11 C 440.99 515.98 445.16 519.05 449.52 520.50 C 462.44 525.05 476.40 527.55 490.00 528.98 C 502.84 530.79 516.08 529.90 529.03 529.97 C 546.30 528.54 563.70 525.72 579.64 518.62 C 582.63 517.37 585.35 516.16 588.63 517.28 C 590.73 518.63 592.22 520.84 592.93 523.20 C 593.65 527.68 589.81 532.04 586.21 534.19 C 580.49 537.57 573.85 539.57 567.49 541.40 C 553.01 545.08 537.97 547.96 523.00 548.27 C 512.74 549.13 502.56 548.41 492.32 547.72 C 476.90 546.02 460.65 543.55 446.17 537.82 C 442.72 536.45 439.14 535.00 436.04 532.93 C 433.38 531.14 431.52 528.23 431.37 525.00 C 431.61 522.05 433.29 518.25 436.23 517.11 Z" fill="#e5bc90" />
<path d="M 683.12 610.97 C 695.12 615.77 706.86 621.54 718.18 627.77 C 719.41 628.60 721.23 629.36 721.29 631.07 C 721.99 636.96 721.09 643.07 721.10 649.00 C 720.95 661.95 720.87 674.94 721.53 687.87 C 722.48 697.02 721.46 706.14 722.57 715.26 C 723.39 722.05 722.58 728.82 723.48 735.60 C 724.17 740.60 723.83 745.63 724.43 750.64 C 725.17 756.47 725.01 762.35 725.82 768.17 C 727.40 780.32 728.54 792.44 730.54 804.54 C 731.96 813.00 734.15 821.49 736.10 829.90 C 686.71 829.92 637.30 829.89 587.91 829.92 C 592.94 824.16 597.30 818.46 598.67 810.71 C 599.59 802.99 599.45 795.47 595.43 788.57 C 591.01 780.23 583.01 775.44 574.19 772.84 C 563.60 770.29 552.61 769.80 542.53 774.56 C 535.97 777.86 529.50 782.09 524.89 787.90 C 518.97 795.05 513.73 802.83 512.27 812.20 C 511.68 818.33 511.38 824.19 513.90 829.96 C 442.21 829.78 370.49 830.06 298.80 829.83 C 318.62 827.18 338.21 823.24 357.66 818.61 C 396.22 809.70 434.02 796.85 469.73 779.75 C 492.67 769.32 514.60 756.44 535.71 742.71 C 550.91 732.00 565.76 721.06 579.68 708.69 C 587.64 700.90 596.24 694.03 603.48 685.48 C 615.90 672.31 626.82 657.94 636.93 642.94 C 639.40 639.05 644.25 638.28 648.17 636.16 C 656.87 631.96 664.85 625.35 672.60 619.60 C 676.29 616.94 679.54 613.76 683.12 610.97 Z" fill="#b2743c" />
<path d="M 340.40 612.33 C 343.13 610.99 344.91 613.65 346.97 615.03 C 369.52 634.25 395.92 647.85 424.01 656.96 C 446.30 663.35 469.63 668.37 492.85 669.20 C 502.42 670.55 512.28 669.81 522.02 670.00 C 526.74 670.19 531.30 669.24 536.00 669.07 C 542.34 669.01 548.70 667.83 555.00 667.05 C 563.84 665.97 572.36 663.69 581.08 662.05 C 576.69 666.97 572.14 671.80 567.62 676.61 C 544.94 698.60 518.06 717.02 490.75 732.78 C 476.49 740.56 462.58 748.21 447.62 754.63 C 404.15 774.11 357.77 787.32 310.75 794.75 C 311.05 790.47 311.81 786.26 312.13 781.99 C 312.63 776.32 313.98 770.66 314.03 764.97 C 314.27 761.17 311.95 757.27 309.33 754.67 C 304.15 749.28 293.99 749.28 289.14 755.14 C 284.71 759.66 285.06 765.23 284.13 771.07 C 283.28 779.51 281.71 787.85 281.93 796.24 C 275.88 797.05 270.12 795.82 264.00 796.09 C 252.00 796.51 239.99 795.71 228.00 796.19 C 220.95 796.42 213.94 796.11 206.90 796.81 C 207.74 789.34 209.38 781.97 210.43 774.54 C 211.85 764.29 214.53 754.13 217.04 744.03 C 224.77 716.15 237.14 689.28 256.67 667.66 C 264.56 657.86 275.12 649.71 285.10 642.11 C 302.07 629.83 320.98 620.11 340.40 612.33 Z" fill="#e5bc90" />
<path d="M 749.06 649.68 C 755.74 653.63 761.35 659.74 766.74 665.26 C 782.85 683.45 794.36 704.65 802.52 727.46 C 807.11 741.00 810.53 754.87 813.00 768.95 C 814.60 778.27 815.21 787.70 817.06 796.99 C 814.12 796.94 811.22 796.72 808.30 796.36 C 799.45 795.28 790.93 796.99 782.00 796.25 C 775.08 795.77 768.00 797.20 761.16 796.12 C 760.39 789.35 759.24 782.61 758.35 775.86 C 757.64 768.57 756.93 761.28 756.15 754.01 C 754.96 742.67 754.55 731.35 753.13 720.02 C 753.11 708.63 750.99 697.39 750.92 686.03 C 750.72 683.01 750.17 680.04 750.06 677.01 C 750.10 667.84 748.42 658.90 749.06 649.68 Z" fill="#e5bc90" />
<path d="M 662.38 690.41 C 668.45 689.20 675.55 690.56 680.25 694.74 C 685.87 699.90 688.61 708.42 687.83 715.92 C 685.86 731.13 677.66 745.37 664.35 753.35 C 659.35 756.43 653.66 756.47 647.99 756.04 C 635.05 754.75 624.76 741.80 625.97 728.96 C 626.22 721.30 631.67 714.08 636.42 708.43 C 642.99 700.64 652.21 692.66 662.38 690.41 Z" fill="#4d3f2f" />
<path d="M 574.19 772.84 C 583.01 775.44 591.01 780.23 595.43 788.57 C 599.45 795.47 599.59 802.99 598.67 810.71 C 597.30 818.46 592.94 824.16 587.91 829.92 C 563.25 830.15 538.56 830.06 513.90 829.96 C 511.38 824.19 511.68 818.33 512.27 812.20 C 513.73 802.83 518.97 795.05 524.89 787.90 C 529.50 782.09 535.97 777.86 542.53 774.56 C 552.61 769.80 563.60 770.29 574.19 772.84 Z" fill="#4d3f2f" />
</svg>
